<svg width="240" height="97" viewBox="0 0 240 97" fill="none" xmlns="http://www.w3.org/2000/svg">
  <path fill-rule="evenodd" clip-rule="evenodd" d="M240 0H0V97H240V0ZM150.493 51.4707C149.403 56.8672 147.109 61.1826 143.611 64.417C140.131 67.6338 136.018 69.2422 131.271 69.2422C126.947 69.2422 123.704 68.0381 121.542 65.6299C119.38 63.2041 118.299 59.5742 118.299 54.7402C118.299 50.1875 119.371 45.5029 121.516 40.6865C123.678 35.8525 126.446 31.9502 129.821 28.9795C132.071 26.9932 134.453 26 136.967 26C138.566 26 140.676 26.5273 143.295 27.582C146.494 28.8477 148.094 30.2451 148.094 31.7744C148.094 32.4951 147.83 33.1367 147.303 33.6992C146.775 34.2617 146.143 34.543 145.404 34.543C145.018 34.543 144.473 34.3232 143.77 33.8838C141.08 32.249 138.812 31.4316 136.967 31.4316C135.648 31.4316 134.269 32.1172 132.827 33.4883C132.106 34.1738 131.069 35.4219 129.716 37.2324C125.655 42.6113 123.625 48.4473 123.625 54.7402C123.625 58.0449 124.135 60.3564 125.154 61.6748C126.262 63.1162 128.301 63.8369 131.271 63.8369C134.418 63.8369 137.151 62.8438 139.472 60.8574C141.915 58.748 143.62 55.7334 144.587 51.8135C139.718 52.0596 135.543 53 132.062 54.6348C131.765 54.7769 131.473 54.8667 131.186 54.9044C131.082 54.918 130.979 54.9248 130.876 54.9248C130.103 54.9248 129.461 54.626 128.951 54.0283C128.477 53.4834 128.239 52.8506 128.239 52.1299C128.239 51.1631 128.705 50.3896 129.637 49.8096C133.434 47.4893 139.981 46.3291 149.28 46.3291C150.036 46.3291 150.669 46.584 151.179 47.0938C151.688 47.6035 151.943 48.2451 151.943 49.0186C151.943 50.1611 151.46 50.9785 150.493 51.4707ZM61.0029 68.8467C65.2568 68.1084 68.377 67.2734 70.3633 66.3418C71.4883 65.8145 72.0508 64.9883 72.0508 63.8633C72.0508 63.1602 71.8311 62.5361 71.3916 61.9912C70.8818 61.3936 70.249 61.0947 69.4932 61.0947C69.3657 61.0947 69.2341 61.105 69.0984 61.1255C69.0442 61.1337 68.9893 61.1436 68.9338 61.155C68.8955 61.163 68.8567 61.1717 68.8176 61.1812L68.7717 61.1927C68.7314 61.2032 68.6904 61.2145 68.6494 61.2266C61.6357 63.4414 55.835 64.5225 51.2471 64.4697C51.2119 63.3447 51.2646 62.0527 51.4053 60.5938L51.748 56.5859C52.2227 48.4473 52.46 39.4121 52.46 29.4805C52.46 28.7246 52.2051 28.083 51.6953 27.5557C51.2031 27.0283 50.5791 26.7646 49.8232 26.7646C49.085 26.7646 48.4609 27.0283 47.9512 27.5557C47.459 28.083 47.2129 28.7246 47.2129 29.4805C47.2129 39.2891 46.9844 48.2188 46.5273 56.2695L46 64.9971C46 66.9658 46.5273 68.3193 47.582 69.0576C48.3555 69.6025 49.6299 69.875 51.4053 69.875C53.8838 69.875 57.083 69.5322 61.0029 68.8467ZM81.6221 64.5752C85.0674 67.5459 89.2686 69.0312 94.2256 69.0312C100.237 69.0312 105.142 66.2363 108.938 60.6465C112.243 55.7598 113.896 50.2754 113.896 44.1934C113.896 38.3574 112.428 34.0859 109.492 31.3789C106.68 28.7773 102.382 27.4766 96.5986 27.4766C90.5869 27.4766 85.5684 30.2363 81.543 35.7559C77.9395 40.7305 76.1377 46.2588 76.1377 52.3408C76.1377 57.333 77.9658 61.4111 81.6221 64.5752ZM85.6562 39.3154C88.6445 35.0264 92.292 32.8818 96.5986 32.8818C100.87 32.8818 103.902 33.6992 105.695 35.334C107.576 37.0391 108.517 39.9922 108.517 44.1934C108.517 48.9922 107.277 53.3164 104.799 57.166C102.021 61.4727 98.4971 63.626 94.2256 63.626C90.6748 63.626 87.6953 62.624 85.2871 60.6201C82.7734 58.4932 81.5166 55.7334 81.5166 52.3408C81.5166 47.5947 82.8965 43.2529 85.6562 39.3154ZM161.462 64.5752C164.907 67.5459 169.108 69.0312 174.065 69.0312C180.077 69.0312 184.981 66.2363 188.778 60.6465C192.083 55.7598 193.735 50.2754 193.735 44.1934C193.735 38.3574 192.268 34.0859 189.332 31.3789C186.52 28.7773 182.222 27.4766 176.438 27.4766C170.427 27.4766 165.408 30.2363 161.383 35.7559C157.779 40.7305 155.978 46.2588 155.978 52.3408C155.978 57.333 157.806 61.4111 161.462 64.5752ZM165.496 39.3154C168.484 35.0264 172.132 32.8818 176.438 32.8818C180.71 32.8818 183.742 33.6992 185.535 35.334C187.416 37.0391 188.356 39.9922 188.356 44.1934C188.356 48.9922 187.117 53.3164 184.639 57.166C181.861 61.4727 178.337 63.626 174.065 63.626C170.515 63.626 167.535 62.624 165.127 60.6201C162.613 58.4932 161.356 55.7334 161.356 52.3408C161.356 47.5947 162.736 43.2529 165.496 39.3154Z" fill="black"/>
</svg>
